<?xml version="1.0" encoding="utf-8"?>
<!-- Generator: Adobe Illustrator 23.0.1, SVG Export Plug-In . SVG Version: 6.00 Build 0)  -->
<svg version="1.1" id="Layer_1" xmlns="http://www.w3.org/2000/svg" xmlns:xlink="http://www.w3.org/1999/xlink" x="0px" y="0px"
	 viewBox="0 0 1080 1920" style="enable-background:new 0 0 1080 1920;" xml:space="preserve">
<style type="text/css">
	.st0{fill:#FFFFFF;}
</style>
<g id="flingo">
	<g id="feet_2">
		<path class="st0" d="M571.6,1298.3c0.3-3.8,0.6-7.6,1-11.4c0.8-7.9,1.7-15.9,2.5-23.8c1.3-12.5,2.7-25.1,3.9-37.6
			c0.8-7.5,1.4-15,2.2-22.5c1.4-13.6,2.8-27.1,4.2-40.6c1.7-16.6,3.5-33.1,5.2-49.7c0.8-7.8,1.5-15.7,2.3-23.5
			c0.2-1.9,0.4-3.8,1.2-5.7c0.7,3.7,1.4,7.3,2,11c4.9,27.2,9.9,54.3,14.8,81.5c1.4,7.8,2.8,15.5,4.2,23.3c0.3,1.9,0,3.6-0.8,5.2
			c-6,13.5-12,27-18.1,40.5c-7.5,16.9-15,33.8-22.6,50.7c-0.5,1-0.9,2-1.4,3C572.1,1298.4,571.8,1298.3,571.6,1298.3z"/>
		<path class="st0" d="M598.5,1046.5c15.3-20.8,30.5-41.4,46.1-62.6c6.3,45.8,12.4,90.6,18.5,135.5c-0.2,0.1-0.4,0.2-0.6,0.3
			C641.3,1095.4,620,1071,598.5,1046.5z"/>
		<path class="st0" d="M664.1,1136c-13.5,18.1-27,35.9-40.9,54.5c-7.7-42.6-15.3-84.4-22.8-126.2c0.2-0.1,0.3-0.2,0.5-0.4
			C621.9,1087.8,642.8,1111.7,664.1,1136z"/>
		<path class="st0" d="M571.6,1537.8c0-3.8,0-7.7,0-11.5c-0.1-10.6-0.3-21.2-0.4-31.8c-0.1-7.1-0.1-14.2-0.2-21.3
			c-0.2-12.3-0.5-24.6-0.7-36.9c-0.2-13.1-0.4-26.2-0.7-39.3c-0.1-3.9-0.4-7.9-0.6-11.9c1.5-0.5,2.8-0.9,4.4-1.4
			c0.4,1.1,0.8,2.1,1.1,3.1c8.1,28.3,16.1,56.6,24.3,84.9c0.7,2.4,0.5,4.5-0.5,6.8c-8.2,19.1-16.3,38.2-24.5,57.2
			c-0.3,0.8-0.8,1.6-1.2,2.3C572.2,1537.8,571.9,1537.8,571.6,1537.8z"/>
		<path class="st0" d="M570.7,1325.9c14.8-33.3,29.3-66,43.9-98.7c0.2,0,0.5,0.1,0.7,0.1c0,1.1,0,2.1,0,3.2
			c-0.1,5.9-0.1,11.7-0.2,17.6c-0.2,16-0.4,32-0.7,48.1c-0.2,9.7-0.4,19.4-0.7,29.1c0,0.5-0.1,1.1-0.2,2
			C599.4,1326.9,585.4,1326.4,570.7,1325.9z"/>
		<path class="st0" d="M566.9,1623.8c0.3,3.7,0.6,7.4,0.9,11.1c0.7,9.6,1.3,19.1,1.9,28.7c0.5,7.8,1,15.5,1.5,23.3
			c0.6,8.8,1.3,17.5,1.9,26.3c0.5,7.8,1,15.5,1.5,23.3c0.6,8.8,1.3,17.5,1.9,26.3c0.5,7.6,1,15.3,1.5,22.9c0.1,2,0.3,3.9,0.5,6.5
			c-1.4-0.8-2.3-1.3-3-1.9c-7-5.1-14-10.3-21-15.4c-1.8-1.3-2.2-2.4-1.9-4.7c1-8.2,1.6-16.4,2.4-24.6c1-10.8,2.1-21.5,3.2-32.3
			c0.5-5.6,1-11.2,1.5-16.8c1.1-12,2.3-24,3.5-36c1.1-11.8,2.2-23.5,3.4-35.3c0-0.4,0.2-0.9,0.2-1.3
			C566.7,1623.8,566.8,1623.8,566.9,1623.8z"/>
		<path class="st0" d="M561.5,988.1c25.5-3.5,50.1-6.8,74.7-10.1c0.1,0.2,0.3,0.4,0.4,0.7c-14.5,19.7-29.1,39.5-43.9,59.6
			C582.2,1021.4,572,1005,561.5,988.1z"/>
		<path class="st0" d="M596.2,1509c-0.3,3.5-0.5,7-0.9,10.6c-0.8,8.6-1.7,17.2-2.6,25.9c-1.3,12.5-2.6,25.1-3.8,37.6
			c-0.7,7.5-1.4,15-2.1,22.6c-0.9,8.7-2,17.4-2.6,26.2c-0.6,8.6-0.7,17.1-1,25.7c-0.3,10.6-0.4,21.2-0.7,31.8
			c-0.1,2.1-0.5,4.2-0.9,6.3c-0.3-5.2-0.7-10.3-1.1-15.5c-0.6-8.1-1.2-16.2-1.8-24.3c-0.4-5.2-0.6-10.4-1-15.5
			c-0.5-8-1.2-15.9-1.8-23.9c-0.4-5.3-0.6-10.6-1-15.9c-0.5-7.9-1.2-15.7-1.7-23.6c-0.3-3.9-0.6-7.9-0.7-11.8c0-1.6,0.3-3.4,1-4.9
			c6.9-16.4,14-32.8,21-49.2c0.3-0.8,0.7-1.5,1.1-2.3C595.8,1508.9,596,1508.9,596.2,1509z"/>
		<path class="st0" d="M556.1,979.1c-5.7-10.7-11.3-21-17.2-32c28.2,7.6,55.7,15,83.2,22.5c0,0.2,0,0.4,0,0.6
			C600.2,973.1,578.3,976.1,556.1,979.1z"/>
		<path class="st0" d="M601.7,1447.4c-6.3-22.2-12.6-44.3-19-66.9c8.9-2.8,17.6-5.6,27-8.6c-1,13-2.4,25.4-3.6,37.9
			c-1.2,12.5-2.5,25-3.7,37.6C602.1,1447.3,601.9,1447.4,601.7,1447.4z"/>
		<path class="st0" d="M454.1,1795.4c2.1-0.4,4.3-1,6.4-1.3c14.6-2.4,29.1-4.8,43.7-7.2c13.3-2.2,26.7-4.4,40-6.6
			c1.7-0.3,2.9-0.1,4.3,1c6.7,5.1,13.6,10,20.3,15.3C530.6,1796.6,492.4,1796.2,454.1,1795.4z"/>
		<path class="st0" d="M585.4,1336.4c-4.6,1.3-9.2,2.5-14,3.8c-0.5-1.6-0.9-2.8-1.3-4.4C575.3,1335,580.3,1336.3,585.4,1336.4z"/>
		<path class="st0" d="M569.2,1370c0.7,1.4,2.2,2.9,0,4.8C569.2,1372.9,569.2,1371.5,569.2,1370z"/>
	</g>
	<g id="feet_1">
		<path class="st0" d="M359.1,1408.4c66.7-18.3,133-36.4,199.8-54.7c0.2,8.2,0.5,16,0.7,24c-5.4,1.7-10.5,3.4-15.7,5
			c-25,7.9-49.9,15.9-74.9,23.8c-27.3,8.7-54.6,17.4-81.9,26.1c-1.5,0.5-2.6,0.7-4-0.6c-7.4-7.3-14.9-14.5-22.4-21.8
			C360.3,1409.8,359.9,1409.3,359.1,1408.4z"/>
		<path class="st0" d="M681.5,1145.7c4.6,1.9,9.1,3.8,13.7,5.7c13.5,5.7,27,11.5,40.5,17.1c2.2,0.9,3.4,2.3,4.3,4.4
			c12.5,29.6,25.1,59.2,37.6,88.8c2.4,5.6,4.7,11.2,7.3,17.3c-4.2-0.8-7.9-1.5-11.6-2.2c-9.3-1.8-18.6-3.7-27.9-5.4
			c-2.3-0.4-3.9-1.3-5-3.7c-12.8-26.4-25.8-52.7-38.8-79.1c-6-12.3-12-24.5-18-36.8c-0.9-1.8-1.7-3.7-2.5-5.5
			C681.1,1146.1,681.3,1145.9,681.5,1145.7z"/>
		<path class="st0" d="M657.2,1001.2c0.5,0.8,1,1.7,1.5,2.5c20.7,41.3,41.4,82.6,61.9,124c4.5,9.2,8.2,18.8,12.4,28.7
			c-1.2-0.3-1.9-0.4-2.5-0.6c-17.8-7.5-35.5-15-53.3-22.4c-2-0.8-2.6-1.9-2.9-4c-2.1-16-4.4-31.9-6.6-47.8
			c-1.2-8.9-2.4-17.9-3.6-26.8c-1.7-12.5-3.5-25-5.2-37.5c-0.7-5.3-1.4-10.7-2.1-16C656.9,1001.3,657,1001.3,657.2,1001.2z"/>
		<path class="st0" d="M344,1457.9c11.5-4.1,22.7-8.1,34.2-12.1c0,2,0,3.8,0,5.5c-0.2,11.8-0.4,23.7-0.7,35.5
			c-0.2,8.8-0.4,17.6-0.7,26.4c-0.2,5.7-0.5,11.4-0.7,17.3C374.4,1528.6,346.1,1464.6,344,1457.9z"/>
		<path class="st0" d="M649,1348.9c-6.3-4.7-12.7-9.3-19.6-14.5c37.2-10.1,73.5-20,109.9-29.9c0.1,0.2,0.2,0.5,0.3,0.7
			C709.4,1319.8,679.3,1334.3,649,1348.9z"/>
		<path class="st0" d="M770.8,1286c-33.1,9-66.2,18-99.3,27c-0.1-0.2-0.2-0.4-0.3-0.6c0.8-0.5,1.5-0.9,2.3-1.4
			c0.8-0.4,1.6-0.8,2.4-1.2c13.6-6.6,27.2-13.2,40.8-19.7c6.9-3.3,13.8-6.7,20.7-10c1.2-0.5,2.7-0.8,3.9-0.6
			c9.8,1.8,19.5,3.8,29.2,5.7C770.6,1285.3,770.6,1285.4,770.8,1286z"/>
		<path class="st0" d="M573.9,1349.6c13-3.6,25.8-7.1,39.1-10.7c-0.7,7.7-1.4,14.9-2.2,22.5c-10,3.2-20.2,6.4-30.7,9.8
			C578,1364,576,1357,573.9,1349.6z"/>
		<path class="st0" d="M352.1,1415.3c7.7,7.4,14.9,14.4,22.4,21.6c-10.2,3.6-19.9,7.1-30.4,10.8
			C346.8,1436.6,349.4,1426.2,352.1,1415.3z"/>
		<path class="st0" d="M620.8,1357.7c0.5-5.2,1-10.4,1.6-16.3c5.3,3.9,10.1,7.4,14.9,10.9C635.2,1353.9,624.6,1357.4,620.8,1357.7z"
			/>
	</g>
	<g id="back">
		<path class="st0" d="M862.5,778.7c14.3,13.1,28.6,26.1,43.2,39.5c-40.7,23-80.9,45.8-121.3,68.8
			C785.3,884.3,858.5,783,862.5,778.7z"/>
		<path class="st0" d="M901.8,832.3c-9.4,18.7-18.9,37.4-28.4,56.4c-27.9,2.4-55.9,4.9-83.9,7.3c-0.1-0.2-0.2-0.5-0.3-0.7
			c37.3-21.2,74.6-42.3,112-63.5C901.4,831.9,901.6,832.1,901.8,832.3z"/>
		<path class="st0" d="M914.6,829.2c7.4,11.6,14.5,22.9,21.9,34.5c-16.6,6.7-32.7,13.2-49,19.8C887.9,880.9,911.2,834.2,914.6,829.2
			z"/>
		<path class="st0" d="M865.8,898.9c-7.5,9.5-14.7,18.6-22,27.8c-18.3-6.8-36.4-13.7-54.5-20.4c0-0.2,0-0.5,0-0.7
			C814.5,903.3,839.8,901.2,865.8,898.9z"/>
		<path class="st0" d="M923.3,909c-11.5-5.2-22.5-10.2-33.6-15.2c1.6-1.6,41-17.8,45.7-18.8C931.3,886.4,927.3,897.6,923.3,909z"/>
		<path class="st0" d="M955.3,965.3c-1.5-3.1-3.1-6.2-4.6-9.3c-4.3-9.1-8.6-18.2-13-27.2c-1.8-3.8-3.6-7.5-5.4-11.3
			c-0.8-1.6-0.8-3.1-0.2-4.8c2.9-7.8,5.6-15.7,8.4-23.6c0.3-0.9,0.7-1.8,1.7-2.7c4.5,26.2,9,52.5,13.5,78.7
			C955.6,965.2,955.4,965.3,955.3,965.3z"/>
	</g>
	<g id="body">
		<path class="st0" d="M767.5,891.8c-17-50.1-33.8-100.1-50.7-149.9c0.2-0.3,0.3-0.3,0.4-0.4s0.2-0.2,0.3-0.2c0.6,0,1.1,0,1.7,0.2
			c44.8,10.5,89.6,21,134.4,31.4C852.8,775.4,770.8,888.8,767.5,891.8z"/>
		<path class="st0" d="M504.6,656.3c36.7,2.5,73.5,5.1,110.6,7.6c0.4,3.5,0.8,6.9,1.2,10.3c1.3,12.7,2.7,25.3,4,37.9
			c0.8,7.7,1.5,15.5,2.3,23.2c1.3,12.1,2.5,24.2,3.8,36.3c0.7,6.6,1.4,13.2,2.1,19.8c1.2,11.8,2.4,23.5,3.5,35.3
			c0.1,0.7,0,1.5-0.6,2.5c-42.4-57.4-84.8-114.7-127.3-172.1C504.4,656.8,504.5,656.5,504.6,656.3z"/>
		<path class="st0" d="M532.5,930.7c-11.1-52.4-22-104.1-33-155.7c0.2-0.1,0.4-0.3,0.6-0.4c43.4,24.5,86.8,49,130.5,73.7
			C598,875.7,565.5,903,532.5,930.7z"/>
		<path class="st0" d="M396.1,870.1c4.3-4.5,8.2-8.7,12.3-12.8c9.3-9.4,18.6-18.8,27.9-28.2c10.5-10.6,20.9-21.3,31.3-32
			c6.5-6.6,12.9-13.3,19.3-20c0.8-0.8,1.6-1.5,2.8-2.6c11,52.2,22,104,33.1,156.5C480.2,910.5,438.4,890.4,396.1,870.1z"/>
		<path class="st0" d="M707.9,745.5c16.8,49.8,33.4,98.7,50,147.8c-2.8-0.4-107.1-45.5-111.6-48.2
			C666.7,812.1,687.1,779.1,707.9,745.5z"/>
		<path class="st0" d="M621,831.7c-4.6-2.6-8.8-4.9-13-7.3c-27.7-15.7-55.4-31.3-83.1-47c-8.3-4.7-16.6-9.5-25.1-14.1
			c-1.9-1.1-2.7-2.2-2.7-4.4c0.3-25.8,0.5-51.5,0.8-77.3c0-5,0.4-10.1,0.6-15.2C500.6,668,618,826.3,621,831.7z"/>
		<path class="st0" d="M755.5,903.4c-34.8,20.2-68.9,40-103.4,60.1c-0.4-4.9-0.8-9.3-1.1-13.8c-0.7-9.4-1.3-18.9-2-28.3
			c-0.5-7.5-1-15-1.5-22.6c-0.7-9.8-1.3-19.5-2-29.3c-0.3-4.6-0.8-9.2-1.2-14.4C681.5,871.2,718.2,887.1,755.5,903.4z"/>
		<path class="st0" d="M626.1,671c25.9,21.7,51.3,42.9,76.8,64.3c-20,32.4-39.9,64.5-59.8,96.7c-0.2,0-0.5-0.1-0.7-0.1
			c-0.5-4.3-0.9-8.6-1.3-12.8c-1.4-13.2-2.7-26.4-4.1-39.6c-1.5-14.5-3.1-29.1-4.6-43.6c-1-9.6-1.9-19.3-2.9-28.9
			c-1.1-10.9-2.2-21.7-3.3-32.6C626,673.4,626.1,672.6,626.1,671z"/>
		<path class="st0" d="M539.6,937.3c32-26.8,63.3-53.2,95-79.8c0.3,1.7,0.7,2.8,0.7,4c0.6,8.7,1,17.3,1.6,26
			c0.8,10.7,1.7,21.3,2.4,32c0.6,8.7,1.1,17.3,1.6,26c0.4,5.5,0.8,11,1.2,16.5c0.1,0.9,0,1.8,0,3.1
			C608.1,955.8,574.2,946.7,539.6,937.3z"/>
		<path class="st0" d="M848.3,761.8c-43.1-10.1-86.2-20.2-130-30.4c19.7-21.6,39.1-42.8,58.7-64.3c24,31.5,47.8,62.8,71.6,94.1
			C848.5,761.5,848.4,761.6,848.3,761.8z"/>
		<path class="st0" d="M512.2,937.4c-42.8,6.8-85.7,13.5-129,20.4c1.3-13.4,3.1-26.3,4.6-39.4c1.5-13,3.1-25.9,4.8-39.3
			c40.1,19.3,79.9,38.4,119.7,57.5C512.3,936.9,512.3,937.1,512.2,937.4z"/>
		<path class="st0" d="M388.1,753.7c31.5,4.8,62.5,9.5,94.1,14.3c-2.4,2.6-4.3,4.9-6.5,7c-9.2,9.3-18.4,18.6-27.6,28
			c-10.9,11.1-21.8,22.3-32.7,33.4c-6.2,6.4-12.4,12.8-18.6,19.3c-1.1,1.1-2.1,2.3-3.6,3.9c-0.3-1.3-0.5-1.8-0.5-2.4
			c-0.3-8.6-0.6-17.1-0.9-25.7c-0.4-9.9-0.9-19.8-1.4-29.7c-0.5-10-0.9-20-1.4-30C388.8,765.9,388.4,760,388.1,753.7z"/>
		<path class="st0" d="M489,662.3c-0.2,3.5-0.5,7-0.6,10.4c-0.1,20.3-0.1,40.7-0.3,61c0,7.9-0.3,15.8-0.5,23.7
			c0,0.4-0.1,0.9-0.2,1.6c-31.5-4.8-62.9-9.5-95-14.4c8.1-7.5,16.2-14.1,24.1-21.1s15.9-13.7,23.9-20.5c8-6.9,16-13.9,24-20.8
			c7.9-6.8,15.8-13.6,23.7-20.5C488.4,662,488.7,662.1,489,662.3z"/>
		<path class="st0" d="M485.7,651.2c-31.3,27.1-62.3,53.8-93.2,80.5c-0.2-0.1-0.4-0.2-0.6-0.3c11-40.3,22.1-80.7,33.2-121.5
			C445.5,623.7,465.4,637.3,485.7,651.2z"/>
		<path class="st0" d="M326.4,937.9c-6.4-43.6-12.6-86.3-18.8-129c0.2-0.1,0.5-0.3,0.7-0.4c24.5,21.2,49,42.5,73.6,63.9
			C363.4,894.2,345.1,915.7,326.4,937.9z"/>
		<path class="st0" d="M708.5,727.4c-25-20.9-49.9-41.7-75.3-62.9c44.6,0,88.4,0,132.3,0C764.4,666.9,712.3,724.3,708.5,727.4z"/>
		<path class="st0" d="M757.2,655c-43.2-0.2-86.4-0.4-130.2-0.6c8.3-19.7,16.5-38.9,24.7-58.4c35.5,19.5,70.5,38.8,105.6,58.1
			C757.3,654.5,757.3,654.7,757.2,655z"/>
		<path class="st0" d="M382.5,860.2c-24.4-21.2-48.8-42.3-73.6-63.9c23.3-14,46.1-27.7,69.6-41.7c0.2,4.9,0.4,9.1,0.6,13.4
			c0.4,6.8,0.8,13.5,1.1,20.3c0.1,2.6,0.2,5.2,0.3,7.8c0.2,6.3,0.4,12.6,0.7,18.9c0.4,10.1,0.9,20.3,1.4,30.4
			c0.2,4.8,0.5,9.7,0.8,14.5C383.1,859.9,382.8,860,382.5,860.2z"/>
		<path class="st0" d="M316,937.5c-21-16.2-42.1-32.5-63.4-48.8c15-26,29.9-51.9,44.8-77.7c0.2,0.1,0.5,0.1,0.7,0.2
			c6.1,42,12.3,84,18.4,126C316.4,937.3,316.2,937.4,316,937.5z"/>
		<path class="st0" d="M629.3,592.1c-41.6,16.4-83.2,32.8-124.8,49.2c-0.2-0.2-0.3-0.3-0.5-0.5c10.5-20.7,20.9-41.4,31.4-62.2
			c31.4,4.3,62.6,8.6,93.8,12.9C629.3,591.6,629.3,591.9,629.3,592.1z"/>
		<path class="st0" d="M311.3,782.9c16.9-40.2,33.9-80.4,50.8-120.6c0.3,0,0.5,0,0.7,0c4.6,27.3,8.9,54.7,13.5,82.3
			c-21.5,12.9-43,25.8-64.4,38.6C311.7,783.2,311.5,783,311.3,782.9z"/>
		<path class="st0" d="M640.2,598.5c-1.4,3.5-2.8,6.8-4.2,10.1c-6.1,14.3-12.2,28.7-18.2,43c-1.1,2.7-1.3,2.8-4.3,2.6
			c-13.9-1-27.9-2.1-41.8-3c-8.8-0.6-17.5-1.1-26.3-1.7c-8.9-0.6-17.8-1.2-26.7-1.8c-0.5,0-1-0.2-1.7-0.4
			C519,645.7,636.1,599.4,640.2,598.5z"/>
		<path class="st0" d="M491.9,643.7c-19.5-13.3-38.4-26.2-57.4-39.2c0.1-0.2,0.1-0.5,0.2-0.7c29.3-7.6,58.5-15.3,87.8-22.9
			c0.2,0.2,0.4,0.4,0.5,0.6C512.9,602.3,502.1,622.6,491.9,643.7z"/>
		<path class="st0" d="M413.8,615.1c-10.1,36.8-20.1,73.6-30.2,110.4c-0.2,0-0.4,0-0.6,0c-4.3-26.5-8.7-53.1-13-79.7
			c14.5-10.5,28.9-20.8,43.2-31.2C413.4,614.8,413.6,615,413.8,615.1z"/>
		<path class="st0" d="M381.8,888.5c-2.8,22.8-5.5,45.7-8.4,68.9c-13.9-3.7-27.5-7.3-41.7-11c16.7-19.7,33-39,49.3-58.2
			C381.3,888.3,381.5,888.4,381.8,888.5z"/>
	</g>
	<g id="hals">
		<path class="st0" d="M210,632.1c27.1,51.9,54.2,103.8,81.3,155.8c-2.6,0.2-78.7-16.7-84.8-18.8c0-1.8,0-3.7,0-5.6
			c0.1-4.6,0.1-9.3,0.2-13.9c0.2-12.4,0.4-24.8,0.7-37.2c0.2-10.3,0.5-20.5,0.7-30.8c0.3-12.5,0.4-25,0.7-37.6
			c0.1-3.9,0.4-7.8,0.6-11.8C209.7,632.2,209.9,632.2,210,632.1z"/>
		<path class="st0" d="M291.5,767.5c-26.3-50.4-52.6-100.8-79-151.4c20.2-1.3,39.8-2.7,59.5-4c1.7,2.8,1.3,5.7,1.7,8.4
			c2.6,19.3,5,38.6,7.5,57.9c1.5,11.4,2.8,22.8,4.2,34.2c2,15.3,4,30.6,5.9,45.8c0.4,3,0.6,5.9,0.9,8.9
			C292,767.4,291.7,767.4,291.5,767.5z"/>
		<path class="st0" d="M247.1,878.3c-12.5-32.7-25-65.2-37.5-97.7c2.4-0.3,76.9,16.3,83,18.4C292.1,801.3,249.9,874.8,247.1,878.3z"
			/>
		<path class="st0" d="M301.3,512.7c-13.1-14.1-25.8-27.8-38.7-41.6c27.7-28.1,55.2-56,82.7-83.9c0.2,0.1,0.4,0.2,0.6,0.3
			C331.1,429,316.3,470.6,301.3,512.7z"/>
		<path class="st0" d="M257.8,480c13.2,14.2,26.1,28.1,39.1,42.1c-26.8,24.2-53.5,48.2-80.2,72.3c-0.2-0.1-0.3-0.2-0.5-0.3
			C230.1,556.3,243.9,518.4,257.8,480z"/>
		<path class="st0" d="M360,253.9c-2,35.8-4.1,71.7-6.1,108c-14.2-0.8-28.1-1.6-42.6-2.5c16.1-35.6,32-70.6,47.9-105.7
			C359.4,253.8,359.7,253.9,360,253.9z"/>
		<path class="st0" d="M272.3,446.3c11.5-25.8,23.1-51.5,34.7-77.5c13.3,0.8,26.3,1.6,39.4,2.3c0.1,0.2,0.2,0.5,0.3,0.7
			c-0.7,0.8-1.5,1.5-2.2,2.3c-9.6,9.7-19.2,19.4-28.8,29.2c-13.4,13.6-26.8,27.2-40.1,40.8c-0.9,0.9-1.5,2-2.3,3
			C273,446.8,272.6,446.6,272.3,446.3z"/>
		<path class="st0" d="M290.6,541.4c-5.8,20.2-11.7,40.4-17.6,60.9c-17.9,1.2-35.7,2.4-53.6,3.6c-0.1-0.2-0.2-0.4-0.3-0.6
			C242.8,583.9,266.5,562.5,290.6,541.4z"/>
		<path class="st0" d="M350.6,249.4c-12,26.4-24,52.9-36,79.4c-0.2,0-0.4,0-0.5,0c0-0.4-0.1-0.9,0-1.3c1.9-13.2,3.9-26.5,5.8-39.7
			c0.2-1.6,0.7-3.1,0.6-4.7c-0.2-5.1,2.7-8.5,6.2-11.7c6.7-6.2,13.2-12.7,19.8-19c1.2-1.2,2.5-2.3,3.8-3.4
			C350.2,249.1,350.4,249.2,350.6,249.4z"/>
		<path class="st0" d="M310.2,222.5c15.5,2.4,30.4,4.7,45.9,7.1c-12.3,11.9-24.1,23.3-36.4,35.3
			C316.4,250.5,313.4,236.9,310.2,222.5z"/>
	</g>
	<g id="head">
		<path class="st0" d="M214,198.1c25.5,6.7,50.3,13.2,74.9,19.6c0.1,0.3,0.1,0.4,0.1,0.5c0,0.1,0,0.3-0.1,0.3
			c-0.4,0.3-0.7,0.6-1.1,0.8c-18.6,9.1-37.3,18.2-56.4,27.6C225.7,230.6,220,214.7,214,198.1z"/>
		<path class="st0" d="M359.4,220.4c-16-2.5-31.6-4.9-47.9-7.4c10.3-18.5,20.3-36.6,30.4-54.8C343.4,160.4,358.6,214.5,359.4,220.4z
			"/>
		<path class="st0" d="M304,206.7c-6.4-11.5-12.5-22.6-18.6-33.6c0.2-0.4,0.4-0.8,0.5-1.2c0.7-2.2,2.1-3.3,4.4-4
			c13.6-4.4,27.1-9.1,40.7-13.7c0.5-0.2,1-0.3,2.4-0.7c-4.8,9.4-9.9,18-14.6,26.7C314,188.8,309.1,197.5,304,206.7z"/>
		<path class="st0" d="M223.6,190.5c4.5-1.6,8.2-2.9,11.9-4.2c10.7-3.6,21.4-7.2,32.1-10.9c1.6-0.5,3-0.9,4.4,0.3
			c0.3,0.3,0.8,0.5,1.2,0.6c3.6,0.2,4.7,3,6.1,5.5c4.3,7.8,8.6,15.6,12.9,23.4c0.5,1,1,2,1.6,3C290.8,208.5,238.7,195.2,223.6,190.5
			z"/>
		<path class="st0" d="M252.6,133.5c4.9,8.8,9.8,17.6,14.5,26.4c0.4,0.7,0.3,1.7,0.1,2.5c-0.2,1.1-0.6,2.1-1,3.4
			c-15.4,5.2-30.9,10.4-46.5,15.7C220.5,178.9,250,135.9,252.6,133.5z"/>
		<path class="st0" d="M333.5,143.2c-16.2,5.5-31.8,10.7-47.4,16c0.3-2.7,12.7-29.5,17.2-37.3C313.2,128.9,323.1,135.9,333.5,143.2z
			"/>
		<path class="st0" d="M177.1,348.8c-6.3-12.5-12.1-24.2-18.1-36.3c12-3.4,23.8-6.7,36.2-10.2C189.1,317.9,183.2,333,177.1,348.8z"
			/>
		<path class="st0" d="M201.1,209.3c-0.5,14.4-0.9,28.8-1.4,43.3c-10.4,1.4-20.5,2.8-31.3,4.3c10.9-16.3,21.4-32.1,31.9-47.9
			C200.6,209.1,200.8,209.2,201.1,209.3z"/>
		<path class="st0" d="M276.1,156.2c-5.5-9.9-10.5-19.1-15.9-28.8c10.9-2.1,21.4-4.2,32.6-6.4C287.2,132.8,281.8,144.1,276.1,156.2z
			"/>
		<path class="st0" d="M162.1,271.6c10.2,7.3,19.8,14.2,30.1,21.5c-11.7,3.3-22.8,6.4-34.4,9.7C159.3,292.3,160.6,282.3,162.1,271.6
			z"/>
		<path class="st0" d="M198.7,285.9c-9.4-6.7-18-12.9-26.7-19.1c0.1-0.2,0.1-0.5,0.2-0.7c8.9-1.2,17.8-2.4,27.2-3.7
			C199.1,270,198.9,277.5,198.7,285.9z"/>
		<path class="st0" d="M211.1,218.5c3.7,10.2,7.3,20.4,11.2,31c-4.4,0.6-8.4,1.1-12.9,1.7c0.3-11.2,0.6-21.9,0.9-32.6
			C210.6,218.6,210.9,218.6,211.1,218.5z"/>
		<path class="st0" d="M208.5,275.7c0.8-4.8-0.4-9.8,1-14.8c3.2-0.4,6.3-0.9,9.9-1.4c-3.5,5.7-6.8,11-10,16.3
			C209,275.9,208.8,275.8,208.5,275.7z"/>
	</g>
</g>
</svg>
